<svg width="428" height="501" viewBox="0 0 428 501" fill="none" xmlns="http://www.w3.org/2000/svg">
<path d="M202.3 0.409797C208.33 -0.140204 218.8 -0.0102021 224.85 0.469798C275.26 5.2198 321.26 9.7398 371.65 14.8198C380.39 15.8298 389.51 15.7598 397.73 19.3198C411.57 25.2898 421.96 38.1898 425.66 52.7198C427.69 60.8398 427.07 69.2698 427.14 77.5498C427.12 139.59 427.13 201.61 427.13 263.64C427.11 277.29 427.62 290.98 426.23 304.58C422.7 333.34 410.57 360.94 391.96 383.14C379.12 399.03 363 411.82 346.43 423.59C308.54 450.27 265.48 474.48 225.01 496.96C218.36 501.21 209.05 501.01 202.16 496.73C172.28 481.55 146.33 465.28 117.63 447.96C98.2401 436.76 79.4301 424.52 61.9401 410.53C22.1601 380.13 -2.00994 330.32 0.130055 280.13C0.200055 208.66 0.0400554 137.19 0.210055 65.7198C0.160055 43.0798 17.2601 19.9998 40.6101 17.7598C94.4801 11.7298 148.42 6.2598 202.3 0.409797ZM47.0601 45.4298C35.2001 46.0998 26.9401 55.5298 28.0601 66.9298C28.1901 132.97 28.0601 201.36 28.5101 267.39C34.0801 262.66 39.0601 257.3 44.1501 252.04C95.7301 199.58 150.63 144.58 202.18 92.0798C205.65 88.6398 208.55 86.6798 213.65 86.6798C219.26 86.6798 221.45 88.1598 225.09 91.9698C245.48 113.97 267.2 135.8 287.86 157.55C291.37 161.07 294.69 165.06 299.26 167.27C306.48 170.46 314.8 165.86 321.91 169.46C327.55 172.6 331.58 177.83 336.15 182.27C357.14 203.56 377.35 225.65 399.03 246.24C399.25 186.84 398.99 126.05 399.16 66.6598C399.36 59.9298 397.37 54.2398 392.2 49.6598C387.57 45.1298 380.87 44.1698 374.71 43.5498C330.33 39.3198 275.16 33.8398 230.79 29.5298C217.04 27.7498 211.17 27.7998 195.99 29.5298C146.35 34.7798 96.7101 40.1998 47.0701 45.4198L47.0601 45.4298ZM188.9 455.7C195.61 459.78 204.21 465.01 214.04 465.01C223.24 465.01 231.86 459.79 238.59 455.7C258.21 440.93 272.78 426.62 291 410.1C302.01 399.91 310.07 388.93 317.32 375.58C325.76 360.53 325.48 340.22 314.41 326.54C303.28 312.38 286.06 305.46 269.66 299.43C253.25 292.87 235.88 288.7 220.05 280.74C215.6 278.23 209.48 274.51 210.76 268.49C212.56 261.73 219.38 258.27 225 255.06C235.34 249.15 245.95 248.54 257.78 241.6C252.37 241.16 248.79 241.2 241.56 242.06C225.18 244.43 208.76 246.88 192.74 251.07C183.14 253.71 173.29 257.34 166.16 264.54C162.13 268.5 160.13 274.98 162.83 280.2C165.94 286.04 171.99 289.42 177.58 292.53C189.22 298.57 201.15 304.06 212.48 310.66C219.91 315.01 227.77 320.19 231.15 328.49C234.33 336.78 231.11 345.95 226.38 352.96C218.56 364.14 206.45 371.1 195.29 378.47C171.05 394.13 149.41 403.24 123.67 416.11L188.92 455.69L188.9 455.7Z" fill="white"/>
</svg>
