<svg width="503" height="90" viewBox="0 0 503 90" fill="none" xmlns="http://www.w3.org/2000/svg">
<path d="M36.55 0.800092C37.62 0.700092 39.47 0.720086 40.54 0.810086C49.46 1.65009 57.6 2.4501 66.52 3.3501C68.07 3.5301 69.6798 3.52008 71.1298 4.15008C73.5798 5.21008 75.42 7.49009 76.07 10.0601C76.43 11.5001 76.32 12.9901 76.33 14.4501C76.33 25.4301 76.33 36.4001 76.33 47.3801C76.33 49.8001 76.4199 52.2201 76.1699 54.6301C75.5399 59.7201 73.4 64.6001 70.1 68.5301C67.83 71.3401 64.97 73.6101 62.04 75.6901C55.33 80.4101 47.71 84.7001 40.55 88.6701C39.37 89.4201 37.7299 89.3901 36.5099 88.6301C31.2199 85.9401 26.63 83.0601 21.55 80.0001C18.12 78.0201 14.7899 75.8501 11.6999 73.3801C4.65988 68.0001 0.379943 59.1901 0.759943 50.3001C0.769943 37.6501 0.739953 25.0001 0.769953 12.3601C0.769953 8.35009 3.78986 4.27008 7.91986 3.87008C17.4499 2.80008 27 1.84009 36.53 0.800092H36.55ZM9.07 8.77009C6.97 8.89009 5.50989 10.5601 5.70989 12.5701C5.72989 24.2601 5.70997 36.3601 5.78997 48.0401C6.77997 47.2001 7.65999 46.2501 8.55999 45.3201C17.69 36.0401 27.4 26.3001 36.53 17.0101C37.14 16.4001 37.66 16.0501 38.56 16.0501C39.55 16.0501 39.94 16.3101 40.59 16.9901C44.2 20.8801 48.0399 24.7501 51.6999 28.6001C52.3199 29.2201 52.9099 29.9301 53.7199 30.3201C54.9999 30.8801 56.4699 30.0701 57.7299 30.7101C58.7299 31.2701 59.4399 32.1901 60.2499 32.9801C63.9599 36.7501 67.5398 40.6601 71.3798 44.3001C71.4198 33.7901 71.3798 23.0301 71.3998 12.5201C71.4398 11.3301 71.0799 10.3201 70.1699 9.51008C69.3499 8.71008 68.16 8.54008 67.07 8.43008C59.22 7.68008 49.45 6.71009 41.6 5.95009C39.17 5.64009 38.1299 5.64009 35.4399 5.95009C26.6499 6.88009 17.87 7.84008 9.09002 8.76008L9.07 8.77009ZM34.1699 81.3701C35.3599 82.0901 36.8801 83.0201 38.6201 83.0201C40.2501 83.0201 41.7699 82.1001 42.9599 81.3701C46.4299 78.7601 49.0099 76.2201 52.2299 73.3001C54.1799 71.5001 55.5998 69.5501 56.8898 67.1901C58.3798 64.5301 58.3298 60.9301 56.3798 58.5101C54.4098 56.0001 51.3599 54.7801 48.4599 53.7101C45.5599 52.5501 42.4799 51.8101 39.6799 50.4001C38.8899 49.9601 37.81 49.3001 38.04 48.2301C38.36 47.0301 39.57 46.4201 40.56 45.8501C42.39 44.8001 44.27 44.7001 46.36 43.4701C45.4 43.3901 44.7699 43.4001 43.4899 43.5501C40.5899 43.9701 37.69 44.4001 34.85 45.1401C33.15 45.6101 31.4098 46.2501 30.1498 47.5201C29.4398 48.2201 29.08 49.3701 29.56 50.2901C30.11 51.3201 31.1799 51.9201 32.1699 52.4701C34.2299 53.5401 36.34 54.5101 38.35 55.6801C39.67 56.4501 41.0598 57.3701 41.6498 58.8401C42.2098 60.3101 41.65 61.9301 40.81 63.1701C39.43 65.1501 37.28 66.3801 35.31 67.6801C31.02 70.4501 27.1898 72.0601 22.6398 74.3401L34.1899 81.3401L34.1699 81.3701Z" fill="#123646"/>
<path d="M123.97 72.5101C120.44 72.5101 116.97 71.8701 113.55 70.5901C110.13 69.3101 107.33 67.5301 104.7 65.0901C104.5 64.9001 104.48 64.5901 104.65 64.3801L110.37 57.3201C110.55 57.1001 110.87 57.0701 111.09 57.2501C112.89 58.7201 114.92 59.8901 117.17 60.7501C119.58 61.6801 121.96 62.1401 124.29 62.1401C126.79 62.1401 128.65 61.6801 129.87 60.7501C131.09 59.8301 131.7 58.5801 131.7 57.0001C131.7 55.8601 131.39 54.9501 130.76 54.2701C130.14 53.5901 129.25 52.9801 128.11 52.4301C126.97 51.8901 125.61 51.2901 124.04 50.6301L117.12 47.7701C115.33 46.9501 113.6 45.9101 111.95 44.6301C110.29 43.3501 108.96 41.7701 107.96 39.9001C106.96 38.0201 106.45 35.7801 106.45 33.1701C106.45 30.2301 107.25 27.5801 108.85 25.2201C110.45 22.8501 112.68 20.9501 115.53 19.5101C118.38 18.0701 121.65 17.3501 125.34 17.3501C128.54 17.3501 131.64 17.9201 134.62 19.0601C137.45 20.1401 139.94 21.6901 142.09 23.7001C142.29 23.8901 142.31 24.2001 142.13 24.4101L136.39 31.4101C136.22 31.6201 135.91 31.6501 135.69 31.5001C134.08 30.3301 132.43 29.4201 130.75 28.7701C128.93 28.0601 127.13 27.7101 125.34 27.7101C123.28 27.7101 121.63 28.1301 120.41 28.9701C119.19 29.8101 118.58 31.0001 118.58 32.5201C118.58 33.5501 118.93 34.4401 119.64 35.1701C120.34 35.9001 121.32 36.5301 122.57 37.0501C123.82 37.5701 125.18 38.1501 126.64 38.8001L133.48 41.5701C135.65 42.4401 137.51 43.5301 139.06 44.8301C140.61 46.1401 141.81 47.7001 142.68 49.5201C143.55 51.3401 143.98 53.5101 143.98 56.0101C143.98 58.9501 143.19 61.6701 141.62 64.1701C140.04 66.6701 137.77 68.6901 134.78 70.2101C131.79 71.7301 128.18 72.4901 123.95 72.4901L123.97 72.5101Z" fill="#123646"/>
<path d="M192.11 70.8599L175.74 18.7799C175.67 18.5699 175.47 18.4199 175.25 18.4199H161.75C161.53 18.4199 161.33 18.5699 161.26 18.7799L144.89 70.8599C144.79 71.1899 145.03 71.5299 145.38 71.5299H156.49C156.72 71.5299 156.93 71.3699 156.99 71.1399L160.14 58.8799H176.36L179.51 71.1399C179.57 71.3699 179.77 71.5299 180.01 71.5299H191.61C191.96 71.5299 192.2 71.1899 192.1 70.8599H192.11ZM162.56 49.4999L163.82 44.5999C164.58 41.9399 165.33 39.1199 166.06 36.1599C166.79 33.1999 167.46 30.2699 168.05 27.3899H168.38C169.08 30.2199 169.79 33.1299 170.5 36.1199C171.2 39.1099 171.94 41.9399 172.7 44.6099L173.96 49.5099H162.57L162.56 49.4999Z" fill="#123646"/>
<path d="M196.7 71.0103V18.8403C196.7 18.5603 196.93 18.3203 197.21 18.3203H229.65C229.93 18.3203 230.16 18.5503 230.16 18.8403V27.9303C230.16 28.2103 229.93 28.4503 229.65 28.4503H209.18C208.9 28.4503 208.67 28.6803 208.67 28.9703V40.2603C208.67 40.5403 208.9 40.7803 209.18 40.7803H226.55C226.83 40.7803 227.06 41.0103 227.06 41.3003V50.3903C227.06 50.6703 226.83 50.9103 226.55 50.9103H209.18C208.9 50.9103 208.67 51.1403 208.67 51.4303V71.0403C208.67 71.3203 208.44 71.5603 208.16 71.5603H197.22C196.94 71.5603 196.71 71.3303 196.71 71.0403L196.7 71.0103Z" fill="#123646"/>
<path d="M236.43 71.0103V18.8403C236.43 18.5603 236.66 18.3203 236.94 18.3203H269.13C269.41 18.3203 269.64 18.5503 269.64 18.8403V27.9303C269.64 28.2103 269.41 28.4503 269.13 28.4503H248.91C248.63 28.4503 248.4 28.6803 248.4 28.9703V38.6303C248.4 38.9103 248.63 39.1503 248.91 39.1503H265.96C266.24 39.1503 266.47 39.3803 266.47 39.6703V48.6803C266.47 48.9603 266.24 49.2003 265.96 49.2003H248.91C248.63 49.2003 248.4 49.4303 248.4 49.7203V60.9303C248.4 61.2103 248.63 61.4503 248.91 61.4503H269.95C270.23 61.4503 270.46 61.6803 270.46 61.9703V71.0603C270.46 71.3403 270.23 71.5803 269.95 71.5803H236.94C236.66 71.5803 236.43 71.3503 236.43 71.0603V71.0103Z" fill="#123646"/>
<path d="M289.67 71.0599V29.0099C289.67 28.7299 289.44 28.4899 289.16 28.4899H275.61C275.33 28.4899 275.1 28.2599 275.1 27.9699V18.9599C275.1 18.6799 275.33 18.4399 275.61 18.4399H315.78C316.06 18.4399 316.29 18.6699 316.29 18.9599V27.9699C316.29 28.2499 316.06 28.4899 315.78 28.4899H302.23C301.95 28.4899 301.72 28.7199 301.72 29.0099V71.0599C301.72 71.3399 301.49 71.5799 301.21 71.5799H290.19C289.91 71.5799 289.68 71.3499 289.68 71.0599H289.67Z" fill="#123646"/>
<path d="M364.27 70.7601L351.86 50.1901C354.6 48.9701 356.83 47.1901 358.52 44.8401C360.36 42.2801 361.29 38.9701 361.29 34.8901C361.29 30.8101 360.37 27.4001 358.52 24.9801C356.67 22.5601 354.2 20.8501 351.11 19.8401C348.02 18.8301 344.6 18.3301 340.85 18.3301H322.23C321.95 18.3301 321.72 18.5601 321.72 18.8501V71.0201C321.72 71.3001 321.95 71.5401 322.23 71.5401H333.17C333.45 71.5401 333.68 71.3101 333.68 71.0201V52.8801C333.68 52.6001 333.91 52.3601 334.19 52.3601H340.29L351.12 71.2601C351.21 71.4301 351.38 71.5301 351.57 71.5301H363.82C364.21 71.5301 364.46 71.1001 364.27 70.7601ZM333.68 42.2901V28.3901C333.68 28.1101 333.91 27.8701 334.19 27.8701H339.86C343.01 27.8701 345.41 28.3901 347.07 29.4201C348.73 30.4501 349.55 32.2801 349.55 34.8901C349.55 37.5001 348.72 39.4701 347.07 40.8101C345.41 42.1401 343.01 42.8101 339.86 42.8101H334.19C333.91 42.8101 333.68 42.5801 333.68 42.2901Z" fill="#123646"/>
<path d="M370.5 71.0103V18.8403C370.5 18.5603 370.73 18.3203 371.01 18.3203H403.2C403.48 18.3203 403.71 18.5503 403.71 18.8403V27.9303C403.71 28.2103 403.48 28.4503 403.2 28.4503H382.98C382.7 28.4503 382.47 28.6803 382.47 28.9703V38.6303C382.47 38.9103 382.7 39.1503 382.98 39.1503H400.03C400.31 39.1503 400.54 39.3803 400.54 39.6703V48.6803C400.54 48.9603 400.31 49.2003 400.03 49.2003H382.98C382.7 49.2003 382.47 49.4303 382.47 49.7203V60.9303C382.47 61.2103 382.7 61.4503 382.98 61.4503H404.02C404.3 61.4503 404.53 61.6803 404.53 61.9703V71.0603C404.53 71.3403 404.3 71.5803 404.02 71.5803H371.01C370.73 71.5803 370.5 71.3503 370.5 71.0603V71.0103Z" fill="#123646"/>
<path d="M410.85 71.0103V18.8403C410.85 18.5603 411.08 18.3203 411.36 18.3203H422.3C422.58 18.3203 422.81 18.5503 422.81 18.8403V40.1103H423.14L438.78 18.5403C438.88 18.4103 439.03 18.3303 439.2 18.3303H451.09C451.51 18.3303 451.76 18.8203 451.5 19.1603L436.29 39.2703C436.16 39.4403 436.15 39.6603 436.26 39.8403L454.59 70.7503C454.79 71.0903 454.55 71.5303 454.15 71.5303H442.24C442.06 71.5303 441.89 71.4303 441.79 71.2703L429.38 49.7603C429.2 49.4403 428.75 49.4103 428.53 49.7103L422.91 57.1103C422.84 57.2003 422.81 57.3103 422.81 57.4203V71.0103C422.81 71.2903 422.58 71.5303 422.3 71.5303H411.36C411.08 71.5303 410.85 71.3003 410.85 71.0103Z" fill="#123646"/>
<path d="M502.72 70.7601L490.31 50.1901C493.05 48.9701 495.28 47.1901 496.97 44.8401C498.81 42.2801 499.74 38.9701 499.74 34.8901C499.74 30.8101 498.82 27.4001 496.97 24.9801C495.12 22.5601 492.65 20.8501 489.56 19.8401C486.47 18.8301 483.05 18.3301 479.3 18.3301H460.68C460.4 18.3301 460.17 18.5601 460.17 18.8501V71.0201C460.17 71.3001 460.4 71.5401 460.68 71.5401H471.62C471.9 71.5401 472.13 71.3101 472.13 71.0201V52.8801C472.13 52.6001 472.36 52.3601 472.64 52.3601H478.74L489.57 71.2601C489.66 71.4301 489.83 71.5301 490.02 71.5301H502.27C502.66 71.5301 502.91 71.1001 502.72 70.7601ZM472.13 42.2901V28.3901C472.13 28.1101 472.36 27.8701 472.64 27.8701H478.31C481.46 27.8701 483.86 28.3901 485.52 29.4201C487.18 30.4501 488 32.2801 488 34.8901C488 37.5001 487.17 39.4701 485.52 40.8101C483.86 42.1401 481.46 42.8101 478.31 42.8101H472.64C472.36 42.8101 472.13 42.5801 472.13 42.2901Z" fill="#123646"/>
</svg>
