<svg width="485" height="500" viewBox="0 0 485 500" fill="none" xmlns="http://www.w3.org/2000/svg">
<path d="M232.69 0.280204C237.28 -0.139796 245.26 -0.0397961 249.87 0.320204C288.28 3.9402 323.32 7.3802 361.71 11.2502C368.37 12.0202 375.31 11.9702 381.58 14.6802C392.12 19.2302 400.04 29.0602 402.86 40.1302C404.4 46.3102 403.94 52.7402 403.99 59.0502C403.97 106.31 403.99 153.57 403.99 200.83C403.97 211.23 404.37 221.66 403.31 232.02C400.62 253.93 391.38 274.96 377.2 291.87C367.42 303.98 355.13 313.72 342.51 322.69C313.64 343.01 280.83 361.46 250 378.59C244.93 381.83 237.84 381.67 232.59 378.42C209.82 366.85 190.06 354.46 168.19 341.27C153.42 332.74 139.09 323.41 125.76 312.75C95.4602 289.59 77.0402 251.64 78.6802 213.4C78.7302 158.95 78.6102 104.5 78.7402 50.0502C78.7002 32.8002 91.7302 15.2102 109.52 13.5102C150.56 8.9202 191.65 4.7502 232.71 0.290204L232.69 0.280204ZM114.41 34.5802C105.37 35.0902 99.0801 42.2702 99.9401 50.9602C100.04 101.27 99.9402 153.38 100.28 203.68C104.52 200.07 108.32 195.99 112.2 191.99C151.49 152.02 193.33 110.12 232.6 70.1202C235.25 67.5002 237.45 66.0102 241.34 66.0102C245.61 66.0102 247.29 67.1402 250.06 70.0402C265.59 86.8002 282.14 103.43 297.88 120C300.55 122.68 303.08 125.73 306.57 127.4C312.07 129.83 318.41 126.32 323.83 129.07C328.13 131.47 331.2 135.45 334.68 138.83C350.67 155.05 366.07 171.88 382.59 187.57C382.76 142.32 382.56 96.0002 382.69 50.7502C382.84 45.6302 381.33 41.2902 377.39 37.8002C373.86 34.3502 368.76 33.6202 364.06 33.1402C330.25 29.9202 288.21 25.7502 254.41 22.4602C243.94 21.1102 239.46 21.1402 227.9 22.4602C190.08 26.4602 152.26 30.5902 114.44 34.5702L114.41 34.5802ZM222.48 347.16C227.59 350.26 234.14 354.25 241.63 354.25C248.64 354.25 255.21 350.27 260.33 347.16C275.28 335.91 286.38 325 300.26 312.42C308.65 304.66 314.79 296.29 320.32 286.12C326.75 274.65 326.54 259.18 318.1 248.75C309.62 237.96 296.5 232.69 284.01 228.09C271.51 223.09 258.27 219.92 246.21 213.85C242.82 211.94 238.16 209.1 239.13 204.52C240.5 199.37 245.7 196.73 249.98 194.29C257.86 189.79 265.94 189.32 274.95 184.03C270.83 183.7 268.1 183.72 262.59 184.38C250.11 186.18 237.6 188.05 225.39 191.24C218.08 193.25 210.57 196.01 205.14 201.51C202.07 204.53 200.55 209.46 202.6 213.44C204.97 217.89 209.58 220.47 213.83 222.84C222.7 227.44 231.79 231.63 240.42 236.65C246.08 239.96 252.07 243.91 254.64 250.24C257.06 256.56 254.61 263.54 251.01 268.89C245.05 277.41 235.83 282.71 227.32 288.33C208.85 300.26 192.36 307.2 172.75 317.01L222.46 347.16H222.48Z" fill="white"/>
<path d="M23.94 500C19.65 500 15.43 499.22 11.27 497.67C7.11005 496.12 3.71005 493.96 0.520048 490.99C0.280048 490.76 0.249989 490.38 0.459989 490.13L7.41006 481.56C7.63006 481.29 8.02006 481.26 8.28006 481.48C10.4701 483.27 12.9301 484.69 15.6701 485.74C18.6001 486.86 21.49 487.43 24.33 487.43C27.36 487.43 29.62 486.87 31.11 485.74C32.59 484.62 33.34 483.1 33.34 481.18C33.34 479.79 32.96 478.69 32.2 477.86C31.44 477.03 30.37 476.29 28.98 475.63C27.59 474.97 25.9501 474.24 24.0301 473.45L15.62 469.98C13.44 468.99 11.35 467.72 9.33999 466.16C7.32999 464.61 5.71002 462.69 4.49002 460.41C3.27002 458.13 2.66006 455.4 2.66006 452.23C2.66006 448.66 3.62998 445.44 5.57998 442.56C7.52998 439.68 10.23 437.37 13.69 435.62C17.15 433.87 21.13 432.99 25.61 432.99C29.5 432.99 33.26 433.68 36.89 435.07C40.33 436.39 43.35 438.27 45.96 440.71C46.2 440.94 46.22 441.32 46.01 441.57L39.0401 450.08C38.8301 450.34 38.46 450.38 38.19 450.18C36.23 448.76 34.2301 447.66 32.1801 446.86C29.9701 446 27.78 445.57 25.6 445.57C23.09 445.57 21.1 446.08 19.61 447.11C18.13 448.14 17.38 449.57 17.38 451.42C17.38 452.68 17.8101 453.75 18.6701 454.64C19.5301 455.53 20.71 456.29 22.23 456.92C23.75 457.55 25.4001 458.26 27.1801 459.05L35.49 462.42C38.13 463.48 40.39 464.8 42.27 466.39C44.15 467.98 45.6201 469.88 46.6701 472.09C47.7201 474.31 48.25 476.93 48.25 479.97C48.25 483.54 47.29 486.85 45.38 489.88C43.47 492.92 40.7 495.37 37.07 497.22C33.44 499.07 29.0601 500 23.9101 500H23.94Z" fill="white"/>
<path d="M106.74 498L86.8499 434.71C86.7699 434.45 86.53 434.27 86.25 434.27H69.8499C69.5799 434.27 69.34 434.45 69.25 434.71L49.36 498C49.23 498.4 49.5299 498.81 49.9599 498.81H63.4699C63.7599 498.81 63.9999 498.62 64.0699 498.34L67.9 483.44H87.61L91.4399 498.34C91.5099 498.62 91.76 498.81 92.04 498.81H106.14C106.56 498.81 106.86 498.4 106.74 498ZM70.8299 472.04L72.36 466.09C73.28 462.85 74.1899 459.43 75.0799 455.83C75.9699 452.23 76.78 448.68 77.5 445.17H77.9C78.76 448.61 79.6099 452.14 80.4699 455.78C81.3299 459.42 82.22 462.85 83.14 466.09L84.67 472.04H70.8299Z" fill="white"/>
<path d="M112.32 498.18V434.79C112.32 434.44 112.6 434.16 112.94 434.16H152.36C152.7 434.16 152.98 434.44 152.98 434.79V445.83C152.98 446.18 152.7 446.46 152.36 446.46H127.49C127.15 446.46 126.87 446.74 126.87 447.09V460.81C126.87 461.16 127.15 461.44 127.49 461.44H148.6C148.94 461.44 149.22 461.72 149.22 462.07V473.11C149.22 473.46 148.94 473.74 148.6 473.74H127.49C127.15 473.74 126.87 474.02 126.87 474.37V498.2C126.87 498.55 126.59 498.83 126.25 498.83H112.95C112.61 498.83 112.33 498.55 112.33 498.2L112.32 498.18Z" fill="white"/>
<path d="M160.6 498.18V434.79C160.6 434.44 160.88 434.16 161.22 434.16H200.34C200.68 434.16 200.96 434.44 200.96 434.79V445.83C200.96 446.18 200.68 446.46 200.34 446.46H175.76C175.42 446.46 175.14 446.74 175.14 447.09V458.83C175.14 459.18 175.42 459.46 175.76 459.46H196.48C196.82 459.46 197.1 459.74 197.1 460.09V471.03C197.1 471.38 196.82 471.66 196.48 471.66H175.76C175.42 471.66 175.14 471.94 175.14 472.29V485.91C175.14 486.26 175.42 486.54 175.76 486.54H201.33C201.67 486.54 201.95 486.82 201.95 487.17V498.21C201.95 498.56 201.67 498.84 201.33 498.84H161.22C160.88 498.84 160.6 498.56 160.6 498.21V498.18Z" fill="white"/>
<path d="M225.3 498.24V447.14C225.3 446.79 225.02 446.51 224.68 446.51H208.22C207.88 446.51 207.6 446.23 207.6 445.88V434.94C207.6 434.59 207.88 434.31 208.22 434.31H257.04C257.38 434.31 257.66 434.59 257.66 434.94V445.88C257.66 446.23 257.38 446.51 257.04 446.51H240.58C240.24 446.51 239.96 446.79 239.96 447.14V498.24C239.96 498.59 239.68 498.87 239.34 498.87H225.94C225.6 498.87 225.32 498.59 225.32 498.24H225.3Z" fill="white"/>
<path d="M315.95 497.88L300.87 472.89C304.2 471.4 306.91 469.24 308.96 466.39C311.2 463.28 312.32 459.25 312.32 454.29C312.32 449.33 311.2 445.19 308.96 442.24C306.72 439.3 303.72 437.22 299.96 435.99C296.2 434.77 292.04 434.16 287.49 434.16H264.86C264.52 434.16 264.24 434.44 264.24 434.79V498.18C264.24 498.53 264.52 498.81 264.86 498.81H278.16C278.5 498.81 278.78 498.53 278.78 498.18V476.13C278.78 475.78 279.06 475.5 279.4 475.5H286.81L299.97 498.47C300.08 498.67 300.29 498.8 300.52 498.8H315.4C315.88 498.8 316.18 498.28 315.94 497.87L315.95 497.88ZM278.78 463.29V446.4C278.78 446.05 279.06 445.77 279.4 445.77H286.3C290.13 445.77 293.04 446.4 295.06 447.65C297.07 448.91 298.08 451.12 298.08 454.29C298.08 457.46 297.07 459.86 295.06 461.48C293.05 463.1 290.13 463.91 286.3 463.91H279.4C279.06 463.91 278.78 463.63 278.78 463.28V463.29Z" fill="white"/>
<path d="M323.53 498.18V434.79C323.53 434.44 323.81 434.16 324.15 434.16H363.27C363.61 434.16 363.89 434.44 363.89 434.79V445.83C363.89 446.18 363.61 446.46 363.27 446.46H338.69C338.35 446.46 338.07 446.74 338.07 447.09V458.83C338.07 459.18 338.35 459.46 338.69 459.46H359.41C359.75 459.46 360.03 459.74 360.03 460.09V471.03C360.03 471.38 359.75 471.66 359.41 471.66H338.69C338.35 471.66 338.07 471.94 338.07 472.29V485.91C338.07 486.26 338.35 486.54 338.69 486.54H364.26C364.6 486.54 364.88 486.82 364.88 487.17V498.21C364.88 498.56 364.6 498.84 364.26 498.84H324.15C323.81 498.84 323.53 498.56 323.53 498.21V498.18Z" fill="white"/>
<path d="M372.56 498.18V434.79C372.56 434.44 372.84 434.16 373.18 434.16H386.48C386.82 434.16 387.1 434.44 387.1 434.79V460.64H387.5L406.51 434.43C406.63 434.27 406.82 434.17 407.02 434.17H421.47C421.99 434.17 422.28 434.76 421.97 435.17L403.49 459.61C403.34 459.81 403.32 460.09 403.45 460.31L425.73 497.87C425.98 498.29 425.68 498.82 425.19 498.82H410.72C410.5 498.82 410.29 498.7 410.18 498.51L395.1 472.37C394.88 471.98 394.33 471.95 394.06 472.3L387.24 481.3C387.16 481.41 387.11 481.54 387.11 481.68V498.19C387.11 498.54 386.83 498.82 386.49 498.82H373.19C372.85 498.82 372.57 498.54 372.57 498.19L372.56 498.18Z" fill="white"/>
<path d="M484.19 497.88L469.11 472.89C472.44 471.4 475.15 469.24 477.2 466.39C479.44 463.28 480.56 459.25 480.56 454.29C480.56 449.33 479.44 445.19 477.2 442.24C474.96 439.3 471.96 437.22 468.2 435.99C464.44 434.77 460.28 434.16 455.73 434.16H433.1C432.76 434.16 432.48 434.44 432.48 434.79V498.18C432.48 498.53 432.76 498.81 433.1 498.81H446.4C446.74 498.81 447.02 498.53 447.02 498.18V476.13C447.02 475.78 447.3 475.5 447.64 475.5H455.05L468.21 498.47C468.32 498.67 468.53 498.8 468.76 498.8H483.64C484.12 498.8 484.42 498.28 484.18 497.87L484.19 497.88ZM447.02 463.29V446.4C447.02 446.05 447.3 445.77 447.64 445.77H454.54C458.37 445.77 461.28 446.4 463.3 447.65C465.31 448.91 466.32 451.12 466.32 454.29C466.32 457.46 465.31 459.86 463.3 461.48C461.29 463.1 458.37 463.91 454.54 463.91H447.64C447.3 463.91 447.02 463.63 447.02 463.28V463.29Z" fill="white"/>
</svg>
